<svg width="298" height="24" viewBox="0 0 298 24" fill="none" xmlns="http://www.w3.org/2000/svg">
<g clip-path="url(#clip0_3495_7804)">
<path d="M61.2187 22.5871C59.4798 22.627 57.7624 22.1951 56.2478 21.3368C54.8396 20.5128 53.6865 19.3131 52.9166 17.8711C52.1234 16.2799 51.7104 14.5251 51.7104 12.7459C51.7104 10.9667 52.1234 9.21197 52.9166 7.6208C53.6865 6.17873 54.8396 4.97905 56.2478 4.15502C57.7743 3.33238 59.48 2.90186 61.2126 2.90186C62.9452 2.90186 64.6509 3.33238 66.1773 4.15502C67.5896 4.97388 68.744 6.17487 69.5085 7.6208C70.2938 9.21435 70.7022 10.9682 70.7022 12.7459C70.7022 14.5237 70.2938 16.2775 69.5085 17.8711C68.744 19.317 67.5896 20.518 66.1773 21.3368C64.666 22.1922 62.9534 22.6241 61.2187 22.5871ZM61.2187 19.4615C63.0263 19.4615 64.4664 18.8629 65.5392 17.6657C66.6119 16.4686 67.1493 14.8282 67.1513 12.7444C67.1513 10.6606 66.614 9.02018 65.5392 7.82305C64.4644 6.6259 63.0242 6.02835 61.2187 6.0304C59.4131 6.0304 57.9689 6.62795 56.886 7.82305C55.8031 9.01814 55.2606 10.6586 55.2585 12.7444C55.2585 14.8302 55.801 16.4706 56.886 17.6657C57.9709 18.8608 59.4152 19.4594 61.2187 19.4615Z" fill="#F4F3EC"/>
<path d="M80.8793 22.5874C79.9616 22.6078 79.052 22.4127 78.2229 22.0174C77.4847 21.6493 76.8537 21.0962 76.3909 20.4117L76.0122 22.2503H72.9131V2.6875H76.3817V10.7069C76.8504 10.0768 77.4337 9.54134 78.1007 9.12877C78.9438 8.64191 79.9075 8.40596 80.8793 8.44849C82.0719 8.42746 83.246 8.74623 84.2654 9.36779C85.26 9.98658 86.0734 10.8589 86.6226 11.8959C87.2094 13.0207 87.5035 14.2761 87.4776 15.5455C87.5003 16.8102 87.2018 18.0598 86.6104 19.1768C86.0602 20.2058 85.2465 21.069 84.2532 21.6773C83.2348 22.2897 82.0664 22.6049 80.8793 22.5874ZM80.1465 19.5414C80.6564 19.5583 81.1643 19.468 81.6375 19.2765C82.1107 19.0849 82.5389 18.7963 82.8945 18.4291C83.2584 18.0458 83.5418 17.593 83.728 17.0977C83.9142 16.6024 83.9994 16.0745 83.9784 15.5455C83.9978 15.013 83.9121 14.4819 83.726 13.9828C83.54 13.4837 83.2574 13.0264 82.8945 12.6375C82.1672 11.9049 81.18 11.4918 80.1496 11.489C79.1192 11.4861 78.1298 11.8936 77.3985 12.6221C76.7073 13.4275 76.3271 14.4551 76.3271 15.5179C76.3271 16.5808 76.7073 17.6084 77.3985 18.4138C77.7512 18.7866 78.1789 19.08 78.6532 19.2744C79.1275 19.4688 79.6375 19.5598 80.1495 19.5414H80.1465Z" fill="#F4F3EC"/>
<path d="M96.0272 22.5875C94.7989 22.6072 93.5878 22.2973 92.5189 21.6896C91.4877 21.1001 90.6359 20.2399 90.0549 19.2014C89.4555 18.069 89.1421 16.8064 89.1421 15.5242C89.1421 14.242 89.4555 12.9793 90.0549 11.847C90.6451 10.8102 91.5012 9.95108 92.5342 9.35871C93.6054 8.76969 94.8072 8.46094 96.0287 8.46094C97.2502 8.46094 98.452 8.76969 99.5233 9.35871C100.554 9.94914 101.405 10.8091 101.987 11.847C102.583 12.9805 102.894 14.2427 102.894 15.5242C102.894 16.8057 102.583 18.0678 101.987 19.2014C101.404 20.2426 100.548 21.1032 99.5111 21.6896C98.4488 22.2915 97.247 22.6013 96.0272 22.5875ZM96.0272 19.5691C96.4687 19.5712 96.9058 19.482 97.3114 19.3069C97.717 19.1319 98.0822 18.8748 98.3844 18.5518C99.0541 17.8715 99.3879 16.8602 99.3859 15.5181C99.3838 14.1759 99.05 13.1656 98.3844 12.4874C98.0826 12.1654 97.7183 11.9087 97.314 11.7333C96.9096 11.5578 96.4738 11.4673 96.0333 11.4673C95.5928 11.4673 95.157 11.5578 94.7526 11.7333C94.3483 11.9087 93.984 12.1654 93.6822 12.4874C93.0247 13.1677 92.696 14.1779 92.696 15.5181C92.696 16.8582 93.0247 17.8694 93.6822 18.5518C93.9815 18.8752 94.3445 19.1327 94.7482 19.3078C95.1518 19.4829 95.5874 19.5719 96.0272 19.5691Z" fill="#F4F3EC"/>
<path d="M105.035 22.2626V2.6875H108.503V22.2626H105.035Z" fill="#F4F3EC"/>
<path d="M32.0077 23.988C26.6216 24.2761 20.0691 19.6795 15.2601 16.5324C-2.17149 31.6979 -6.39427 1.18311 14.854 11.9053C19.5714 8.37821 24.6247 3.00027 30.3284 0.815386C49.8729 -5.17848 49.9645 23.8133 32.0077 23.988ZM18.4111 13.9676C42.6547 33.4538 49.1187 -0.811785 31.6413 4.43438C27.0857 6.15655 22.3255 11.0105 18.4111 13.9676ZM5.66646 16.8634C7.72441 17.3292 9.60528 16.0513 11.5197 14.608C9.62055 13.8757 6.50307 12.8522 5.00693 13.8052C3.72758 14.7827 4.04818 16.4926 5.66646 16.8634Z" fill="#2FE4AB"/>
<path d="M6.04785 16.9307V20.8408C8.44168 20.9143 11.5439 19.7591 15.2598 16.5323C14.0864 15.7564 12.8322 15.1111 11.5195 14.6079C9.72409 15.9593 7.95925 17.1666 6.04785 16.9307Z" fill="url(#paint0_linear_3495_7804)"/>
<path d="M25.4735 8.19695L22.2462 5.8374C19.6722 7.90278 17.2203 10.1275 14.854 11.9048C16.0944 12.4926 17.2841 13.1824 18.4112 13.9671C20.5668 12.3369 22.979 10.1367 25.4735 8.19695Z" fill="url(#paint1_linear_3495_7804)"/>
</g>
<path d="M118.404 22V2.4H125.656C127.224 2.4 128.521 2.66133 129.548 3.184C130.575 3.70667 131.34 4.42533 131.844 5.34C132.348 6.25467 132.6 7.28133 132.6 8.42C132.6 9.50267 132.357 10.5013 131.872 11.416C131.387 12.312 130.631 13.04 129.604 13.6C128.577 14.1413 127.261 14.412 125.656 14.412H121.988V22H118.404ZM121.988 11.5H125.432C126.683 11.5 127.579 11.2293 128.12 10.688C128.68 10.128 128.96 9.372 128.96 8.42C128.96 7.44933 128.68 6.69333 128.12 6.152C127.579 5.592 126.683 5.312 125.432 5.312H121.988V11.5ZM141.281 22.336C139.937 22.336 138.724 22.028 137.641 21.412C136.577 20.796 135.728 19.9467 135.093 18.864C134.477 17.7627 134.169 16.4933 134.169 15.056C134.169 13.6187 134.486 12.3587 135.121 11.276C135.756 10.1747 136.605 9.316 137.669 8.7C138.752 8.084 139.965 7.776 141.309 7.776C142.634 7.776 143.829 8.084 144.893 8.7C145.976 9.316 146.825 10.1747 147.441 11.276C148.076 12.3587 148.393 13.6187 148.393 15.056C148.393 16.4933 148.076 17.7627 147.441 18.864C146.825 19.9467 145.976 20.796 144.893 21.412C143.81 22.028 142.606 22.336 141.281 22.336ZM141.281 19.228C142.214 19.228 143.026 18.8827 143.717 18.192C144.408 17.4827 144.753 16.4373 144.753 15.056C144.753 13.6747 144.408 12.6387 143.717 11.948C143.026 11.2387 142.224 10.884 141.309 10.884C140.357 10.884 139.536 11.2387 138.845 11.948C138.173 12.6387 137.837 13.6747 137.837 15.056C137.837 16.4373 138.173 17.4827 138.845 18.192C139.536 18.8827 140.348 19.228 141.281 19.228ZM151.597 22V1.84H155.181V13.74L160.109 8.112H164.365L158.681 14.44L165.289 22H160.809L155.181 15.028V22H151.597ZM173.111 22.336C171.711 22.336 170.47 22.0373 169.387 21.44C168.304 20.8427 167.455 20.0027 166.839 18.92C166.223 17.8373 165.915 16.5867 165.915 15.168C165.915 13.7307 166.214 12.452 166.811 11.332C167.427 10.212 168.267 9.344 169.331 8.728C170.414 8.09333 171.683 7.776 173.139 7.776C174.502 7.776 175.706 8.07467 176.751 8.672C177.796 9.26933 178.608 10.0907 179.187 11.136C179.784 12.1627 180.083 13.3107 180.083 14.58C180.083 14.7853 180.074 15 180.055 15.224C180.055 15.448 180.046 15.6813 180.027 15.924H169.471C169.546 17.0067 169.919 17.856 170.591 18.472C171.282 19.088 172.112 19.396 173.083 19.396C173.811 19.396 174.418 19.2373 174.903 18.92C175.407 18.584 175.78 18.1547 176.023 17.632H179.663C179.402 18.5093 178.963 19.312 178.347 20.04C177.75 20.7493 177.003 21.3093 176.107 21.72C175.23 22.1307 174.231 22.336 173.111 22.336ZM173.139 10.688C172.262 10.688 171.487 10.94 170.815 11.444C170.143 11.9293 169.714 12.676 169.527 13.684H176.443C176.387 12.7693 176.051 12.0413 175.435 11.5C174.819 10.9587 174.054 10.688 173.139 10.688ZM183.097 22V8.112H186.261L186.569 9.988C187.017 9.316 187.605 8.784 188.333 8.392C189.08 7.98133 189.939 7.776 190.909 7.776C193.056 7.776 194.577 8.60667 195.473 10.268C195.977 9.50267 196.649 8.896 197.489 8.448C198.348 8 199.281 7.776 200.289 7.776C202.1 7.776 203.491 8.31733 204.461 9.4C205.432 10.4827 205.917 12.0693 205.917 14.16V22H202.333V14.496C202.333 13.3013 202.1 12.3867 201.633 11.752C201.185 11.1173 200.485 10.8 199.533 10.8C198.563 10.8 197.779 11.1547 197.181 11.864C196.603 12.5733 196.313 13.5627 196.313 14.832V22H192.729V14.496C192.729 13.3013 192.496 12.3867 192.029 11.752C191.563 11.1173 190.844 10.8 189.873 10.8C188.921 10.8 188.147 11.1547 187.549 11.864C186.971 12.5733 186.681 13.5627 186.681 14.832V22H183.097ZM215.984 22.336C214.64 22.336 213.427 22.028 212.344 21.412C211.28 20.796 210.431 19.9467 209.796 18.864C209.18 17.7627 208.872 16.4933 208.872 15.056C208.872 13.6187 209.189 12.3587 209.824 11.276C210.459 10.1747 211.308 9.316 212.372 8.7C213.455 8.084 214.668 7.776 216.012 7.776C217.337 7.776 218.532 8.084 219.596 8.7C220.679 9.316 221.528 10.1747 222.144 11.276C222.779 12.3587 223.096 13.6187 223.096 15.056C223.096 16.4933 222.779 17.7627 222.144 18.864C221.528 19.9467 220.679 20.796 219.596 21.412C218.513 22.028 217.309 22.336 215.984 22.336ZM215.984 19.228C216.917 19.228 217.729 18.8827 218.42 18.192C219.111 17.4827 219.456 16.4373 219.456 15.056C219.456 13.6747 219.111 12.6387 218.42 11.948C217.729 11.2387 216.927 10.884 216.012 10.884C215.06 10.884 214.239 11.2387 213.548 11.948C212.876 12.6387 212.54 13.6747 212.54 15.056C212.54 16.4373 212.876 17.4827 213.548 18.192C214.239 18.8827 215.051 19.228 215.984 19.228ZM226.3 22V8.112H229.464L229.744 10.464C230.174 9.64267 230.79 8.98933 231.592 8.504C232.414 8.01867 233.375 7.776 234.476 7.776C236.194 7.776 237.528 8.31733 238.48 9.4C239.432 10.4827 239.908 12.0693 239.908 14.16V22H236.324V14.496C236.324 13.3013 236.082 12.3867 235.596 11.752C235.111 11.1173 234.355 10.8 233.328 10.8C232.32 10.8 231.49 11.1547 230.836 11.864C230.202 12.5733 229.884 13.5627 229.884 14.832V22H226.3ZM250.092 22V2.4H253.676V19.2H262.356V22H250.092ZM267.361 5.956C266.708 5.956 266.167 5.76 265.737 5.368C265.327 4.976 265.121 4.48133 265.121 3.884C265.121 3.28667 265.327 2.80133 265.737 2.428C266.167 2.036 266.708 1.84 267.361 1.84C268.015 1.84 268.547 2.036 268.957 2.428C269.387 2.80133 269.601 3.28667 269.601 3.884C269.601 4.48133 269.387 4.976 268.957 5.368C268.547 5.76 268.015 5.956 267.361 5.956ZM265.569 22V8.112H269.153V22H265.569ZM278.634 22.336C277.402 22.336 276.32 22.14 275.386 21.748C274.453 21.3373 273.706 20.7773 273.146 20.068C272.586 19.3587 272.25 18.5373 272.138 17.604H275.75C275.862 18.1453 276.161 18.612 276.646 19.004C277.15 19.3773 277.794 19.564 278.578 19.564C279.362 19.564 279.932 19.4053 280.286 19.088C280.66 18.7707 280.846 18.4067 280.846 17.996C280.846 17.3987 280.585 16.9973 280.062 16.792C279.54 16.568 278.812 16.3533 277.878 16.148C277.281 16.0173 276.674 15.8587 276.058 15.672C275.442 15.4853 274.873 15.252 274.35 14.972C273.846 14.6733 273.436 14.3 273.118 13.852C272.801 13.3853 272.642 12.816 272.642 12.144C272.642 10.912 273.128 9.876 274.098 9.036C275.088 8.196 276.469 7.776 278.242 7.776C279.885 7.776 281.192 8.15867 282.162 8.924C283.152 9.68933 283.74 10.744 283.926 12.088H280.538C280.333 11.0613 279.558 10.548 278.214 10.548C277.542 10.548 277.02 10.6787 276.646 10.94C276.292 11.2013 276.114 11.528 276.114 11.92C276.114 12.3307 276.385 12.6573 276.926 12.9C277.468 13.1427 278.186 13.3667 279.082 13.572C280.053 13.796 280.94 14.048 281.742 14.328C282.564 14.5893 283.217 14.9907 283.702 15.532C284.188 16.0547 284.43 16.8107 284.43 17.8C284.449 18.6587 284.225 19.4333 283.758 20.124C283.292 20.8147 282.62 21.356 281.742 21.748C280.865 22.14 279.829 22.336 278.634 22.336ZM293.356 22C291.9 22 290.733 21.6453 289.856 20.936C288.978 20.2267 288.54 18.9667 288.54 17.156V11.108H286.16V8.112H288.54L288.96 4.388H292.124V8.112H295.876V11.108H292.124V17.184C292.124 17.856 292.264 18.3227 292.544 18.584C292.842 18.8267 293.346 18.948 294.056 18.948H295.792V22H293.356Z" fill="#475E64"/>
<defs>
<linearGradient id="paint0_linear_3495_7804" x1="8.93937" y1="20.3536" x2="11.6176" y2="14.738" gradientUnits="userSpaceOnUse">
<stop stop-color="#2FE4AB" stop-opacity="0"/>
<stop offset="1" stop-color="#0F7C76"/>
</linearGradient>
<linearGradient id="paint1_linear_3495_7804" x1="22.0324" y1="6.9896" x2="18.0883" y2="13.4029" gradientUnits="userSpaceOnUse">
<stop stop-color="#2FE4AB" stop-opacity="0"/>
<stop offset="1" stop-color="#0F7C76"/>
</linearGradient>
<clipPath id="clip0_3495_7804">
<rect width="108" height="24" fill="white" transform="translate(0.5)"/>
</clipPath>
</defs>
</svg>
