<svg width="46" height="24" viewBox="0 0 46 24" fill="none" xmlns="http://www.w3.org/2000/svg">
<path d="M32.0077 23.988C26.6216 24.2761 20.0691 19.6795 15.2601 16.5324C-2.17149 31.6979 -6.39427 1.18311 14.854 11.9053C19.5714 8.37821 24.6247 3.00027 30.3284 0.815386C49.8729 -5.17848 49.9645 23.8133 32.0077 23.988ZM18.4111 13.9676C42.6547 33.4538 49.1187 -0.811785 31.6413 4.43438C27.0857 6.15655 22.3255 11.0105 18.4111 13.9676ZM5.66646 16.8634C7.72441 17.3292 9.60528 16.0513 11.5197 14.608C9.62055 13.8757 6.50307 12.8522 5.00693 13.8052C3.72758 14.7827 4.04818 16.4926 5.66646 16.8634Z" fill="#2FE4AB"/>
</svg>
